<?xml version="1.0" standalone="no"?><!DOCTYPE svg PUBLIC "-//W3C//DTD SVG 1.1//EN" "http://www.w3.org/Graphics/SVG/1.1/DTD/svg11.dtd"><svg xmlns:xlink="http://www.w3.org/1999/xlink" xmlns="http://www.w3.org/2000/svg" version="1.1" width="200" height="200" viewBox="0 0 200 200"><defs><style type="text/css"><![CDATA[
@font-face {
  font-family: "ifont";
  src: url("//at.alicdn.com/t/font_1442373896_4754455.eot?#iefix") format("embedded-opentype"), url("//at.alicdn.com/t/font_1442373896_4754455.woff") format("woff"), url("//at.alicdn.com/t/font_1442373896_4754455.ttf") format("truetype"), url("//at.alicdn.com/t/font_1442373896_4754455.svg#ifont") format("svg");
}

]]></style></defs><g class="transform-group"><g transform="scale(0.1953125, 0.1953125)"><path d="M693.314 683.071h-372.080l-0.431-10.053c-0.19-4.534-0.278-9.135-0.278-13.689 0-140.629 83.649-356.114 186.735-356.114 103.086 0 186.763 215.486 186.763 356.114 0 4.554-0.102 9.149-0.292 13.683l-0.416 10.059zM508.908 299.426c-54.836 0-99.462-43.707-99.462-97.435 0-53.715 44.626-97.415 99.462-97.415 54.85 0 99.488 43.7 99.488 97.415-0.001 53.728-44.638 97.435-99.488 97.435zM948.391 683.071h-218.565l0.459-10.939c0.204-4.923 0.302-9.902 0.302-14.849 0-73.558-51.695-242.294-83.37-288.642l-4.829-7.059 5.919-6.158c32.892-34.158 72.321-52.209 114.032-52.209 103.086 0 186.749 215.486 186.749 356.114 0 4.554-0.089 9.149-0.279 13.683l-0.418 10.059zM763.988 299.426c-54.838 0-99.462-43.707-99.462-97.435 0-53.715 44.624-97.415 99.462-97.415 54.862 0 99.487 43.7 99.487 97.415 0 53.728-44.625 97.435-99.487 97.435zM291.383 683.071h-218.563l-0.406-10.059c-0.203-4.534-0.291-9.13-0.291-13.683 0-140.629 83.662-356.114 186.748-356.114 41.711 0 81.142 18.049 114.020 52.209l5.943 6.158-4.839 7.059c-31.676 46.348-83.371 215.085-83.371 288.642 0 4.947 0.101 9.927 0.303 14.849l0.457 10.939zM257.225 299.426c-54.849 0-99.487-43.707-99.487-97.435 0-53.715 44.638-97.415 99.487-97.415s99.462 43.7 99.462 97.415c0 53.728-44.612 97.435-99.462 97.435zM72.123 715.702h877.942v203.723h-877.942v-203.723z" fill="#272636"></path></g></g></svg>