<?xml version="1.0" standalone="no"?><!DOCTYPE svg PUBLIC "-//W3C//DTD SVG 1.1//EN" "http://www.w3.org/Graphics/SVG/1.1/DTD/svg11.dtd"><svg xmlns:xlink="http://www.w3.org/1999/xlink" xmlns="http://www.w3.org/2000/svg" version="1.1" width="200" height="200" viewBox="0 0 200 200"><defs><style type="text/css"><![CDATA[
@font-face {
  font-family: "ifont";
  src: url("//at.alicdn.com/t/font_1442373896_4754455.eot?#iefix") format("embedded-opentype"), url("//at.alicdn.com/t/font_1442373896_4754455.woff") format("woff"), url("//at.alicdn.com/t/font_1442373896_4754455.ttf") format("truetype"), url("//at.alicdn.com/t/font_1442373896_4754455.svg#ifont") format("svg");
}

]]></style></defs><g class="transform-group"><g transform="scale(0.1953125, 0.1953125)"><path d="M292.062609 1005.568c-2.270609 0-4.563478-0.044522-6.90087-0.089043-65.179826-1.647304-139.642435-18.031304-137.193739-131.049739 1.625043-74.128696 1.246609-149.682087 0.890435-222.742261-0.155826-32.211478-0.333913-64.422957-0.333913-96.612174 0-12.310261 9.97287-22.26087 22.26087-22.26087s22.26087 9.950609 22.26087 22.26087c0 32.122435 0.155826 64.26713 0.311652 96.367304 0.378435 73.371826 0.75687 149.214609-0.868174 223.944348-1.380174 62.953739 21.414957 83.745391 93.785043 85.570783 33.747478 1.135304 57.054609-5.36487 71.145739-18.966261 13.690435-13.222957 20.502261-35.216696 20.858435-67.272348l0.400696-35.194435c0.77913-65.113043 1.558261-132.452174-0.957217-198.277565-1.402435-35.862261 5.810087-60.349217 22.683826-76.978087 16.339478-16.11687 40.737391-23.017739 74.662957-21.281391 28.360348 1.536 52.023652 1.024 71.034435 0.712348 40.002783-0.823652 66.381913-1.26887 85.459478 17.897739 22.372174 22.505739 23.685565 62.152348 21.459478 153.978435-1.090783 45.590261-0.623304 91.202783-0.044522 137.794783 1.246609 95.521391 19.856696 105.939478 92.605217 105.939478 44.009739 0 75.776 0 83.522783-8.614957 8.770783-9.750261 8.882087-46.391652 9.060174-97.101913 0.26713-68.563478 0.200348-137.060174 0.133565-205.55687l-0.066783-92.894609c0-12.310261 9.950609-22.26087 22.26087-22.26087s22.26087 9.950609 22.26087 22.26087l0.066783 92.850087c0.066783 68.563478 0.133565 137.149217-0.133565 205.757217-0.467478 140.265739-9.46087 150.082783-137.104696 150.082783-102.333217 0-135.657739-36.418783-137.126957-149.882435-0.578783-47.014957-1.046261-93.094957 0.044522-139.442087 1.202087-49.129739 2.693565-110.235826-8.503652-121.499826-5.654261-5.721043-26.579478-5.275826-53.047652-4.808348-19.70087 0.400696-44.254609 0.845913-74.24-0.734609-20.346435-1.135304-34.214957 1.758609-41.049043 8.525913-7.123478 7.012174-10.306783 21.682087-9.46087 43.542261 2.582261 66.960696 1.78087 134.878609 1.001739 200.525913l-0.400696 35.149913c-0.467478 44.588522-11.731478 76.911304-34.459826 98.838261C366.391652 995.216696 334.848 1005.568 292.062609 1005.568zM967.323826 502.761739c-5.632 0-11.264-2.114783-15.60487-6.38887L517.186783 69.275826 78.981565 496.461913c-8.815304 8.570435-22.884174 8.370087-31.49913-0.400696-8.570435-8.815304-8.392348-22.906435 0.400696-31.49913L501.715478 22.194087C510.374957 13.734957 524.243478 13.757217 532.858435 22.26087l450.092522 442.390261c8.770783 8.614957 8.882087 22.728348 0.26713 31.49913C978.854957 500.535652 973.089391 502.761739 967.323826 502.761739z" fill="#272636"></path></g></g></svg>