<?xml version="1.0" standalone="no"?><!DOCTYPE svg PUBLIC "-//W3C//DTD SVG 1.1//EN" "http://www.w3.org/Graphics/SVG/1.1/DTD/svg11.dtd"><svg xmlns:xlink="http://www.w3.org/1999/xlink" xmlns="http://www.w3.org/2000/svg" version="1.1" width="200" height="200" viewBox="0 0 200 200"><defs><style type="text/css"><![CDATA[
@font-face {
  font-family: "ifont";
  src: url("//at.alicdn.com/t/font_1442373896_4754455.eot?#iefix") format("embedded-opentype"), url("//at.alicdn.com/t/font_1442373896_4754455.woff") format("woff"), url("//at.alicdn.com/t/font_1442373896_4754455.ttf") format("truetype"), url("//at.alicdn.com/t/font_1442373896_4754455.svg#ifont") format("svg");
}

]]></style></defs><g class="transform-group"><g transform="scale(0.1953125, 0.1953125)"><path d="M404.492 111.869c78.296-11.037 142.953-10.655 214.517 0 48.97 10.377 98.6 18.498 146.771 31.86 35.643 9.891 61.43 34.116 74.166 71.095 20.234 58.427 41.439 116.508 63.755 174.137 3.783 9.648 16.139 23.843 23.045 23.062 46.923-5.292 68.995 20.806 83.329 59.434 3.436 11.834 1.527 23.669 0 31.513-19.539 5.423-39.113 10.802-57.092 15.765 2.534 20.338 7.115 40.988 7.22 61.639 0.798 94.191 1.354 188.418-0.521 282.609-0.313 16.799-10.03 42.967-16.798 47.201-6.386 11.002-148.819 10.48-159.891 2.846-36.996-24.051-14.229-64.414-26.099-97.143-163.118 0-326.305 0-483.834 0-9.371 34.637-14.958 92.805-26.238 97.143-24.641 9.475-156.663 9.822-164.021 0-9.995-7.08-16.797-35.643-18.116-53.969-2.742-39.668-1.146-79.648-0.764-119.492 0.729-73.992 1.839-147.986 2.811-222.465-13.882-3.645-33.595-8.884-53.343-14.134-1.076-7.08-2.499-15.756 0-25.213 13.709-40.762 33.769-72.241 85.168-65.681 6.212 0.798 17.665-12.477 21.066-21.379 17.561-46.038 36.406-92.005 48.935-139.518 21.032-79.893 78.679-112.031 152.29-126.191C348.546 119.643 376.623 116.172 404.492 111.869zM183.554 427.38c222.396 46.055 435.559 47.148 654.207 0-18.36-56.64-36.789-106.929-50.671-158.397-11.939-44.216-40.502-65.976-83.052-67.868-103.701-4.668-207.437-8.381-311.172-9.162-34.151-0.261-68.822 7.826-102.348 15.826-13.813 3.314-31.999 13.848-36.719 25.7C229.054 295.359 207.953 358.767 183.554 427.38zM226.243 668.109C226.312 666.895 226.173 669.289 226.243 668.109c17.804 0 36.51-0.625 53.412-4.582 12.286-2.879 27.869-12.84 31.756-23.426 2.742-7.496-9.058-26.758-18.811-31.27-40.641-18.846-82.357-35.955-124.941-49.941-21.205-6.977-44.84-5.658-51.677 24.605-9.961 44.25-0.66 68.926 32.415 75.832C173.836 664.639 200.248 665.367 226.243 668.109zM802.499 667.971c22.976-2.777 51.435-3.783 78.713-10.135 37.274-8.572 29.396-40.051 28.528-66.705-0.729-22.801-14.889-39.945-35.435-33.561-51.33 15.932-102.278 34.707-150.555 58.168-22.177 10.793-14.229 40.57 11.002 46.09C754.986 666.234 776.262 665.818 802.499 667.971z" fill="#272636"></path></g></g></svg>