<?xml version="1.0" standalone="no"?><!DOCTYPE svg PUBLIC "-//W3C//DTD SVG 1.1//EN" "http://www.w3.org/Graphics/SVG/1.1/DTD/svg11.dtd"><svg xmlns:xlink="http://www.w3.org/1999/xlink" xmlns="http://www.w3.org/2000/svg" version="1.1" width="200" height="200" viewBox="0 0 200 200"><defs><style type="text/css"><![CDATA[
@font-face {
  font-family: "ifont";
  src: url("//at.alicdn.com/t/font_1442373896_4754455.eot?#iefix") format("embedded-opentype"), url("//at.alicdn.com/t/font_1442373896_4754455.woff") format("woff"), url("//at.alicdn.com/t/font_1442373896_4754455.ttf") format("truetype"), url("//at.alicdn.com/t/font_1442373896_4754455.svg#ifont") format("svg");
}

]]></style></defs><g class="transform-group"><g transform="scale(0.1953125, 0.1953125)"><path d="M668.501 715.712c-49.6 34.816-107.776 52.16-167.104 51.456-7.872-0.128-15.616-0.704-23.36-1.28-3.136-0.32-6.272-0.832-9.408-1.28-6.144-0.768-12.096-1.536-18.048-2.752-3.648-0.64-7.296-1.664-10.816-2.496-5.824-1.28-11.584-2.56-17.28-4.224-2.688-1.024-5.248-1.856-7.936-2.944-6.592-2.048-13.12-4.352-19.392-6.976-1.408-0.64-2.816-1.152-4.224-1.728-7.36-3.392-14.656-6.848-21.76-10.56-0.256-0.192-0.64-0.32-0.896-0.512-23.936-13.184-45.76-29.376-64.96-48.704-0.32-0.32-0.576-0.704-0.96-1.024-5.952-5.952-11.648-12.096-17.024-18.752-1.088-1.344-2.176-2.688-3.328-4.288-38.976-48.768-62.464-110.528-62.464-177.664h75.136l-120.128-180.16-120.128 180.16h75.008c0 78.912 24.704 152.128 66.496 212.736 0.512 0.896 0.832 1.856 1.408 2.624 4.288 6.272 9.152 11.968 13.76 17.728 1.792 2.112 3.328 4.288 5.184 6.656 6.784 8.192 14.144 16 21.568 23.68 0.768 0.768 1.408 1.408 2.048 2.112 25.152 25.216 53.504 46.336 84.416 63.36 0.832 0.448 1.536 0.832 2.496 1.344 8.896 4.8 18.048 9.216 27.264 13.248 2.368 1.024 4.608 2.048 6.848 3.008 8 3.392 16.128 6.208 24.32 9.024 3.904 1.344 7.68 2.624 11.648 3.904 7.168 2.048 14.464 3.904 21.888 5.568 4.928 1.152 9.664 2.432 14.72 3.328 2.048 0.512 3.968 1.152 6.016 1.344 7.040 1.28 14.016 1.92 20.928 2.752 2.56 0.448 5.056 0.896 7.552 1.152 12.544 1.216 25.024 1.984 37.504 1.984 76.224 0 150.72-23.296 214.592-68.096 20.352-14.272 25.344-42.432 11.136-62.656-14.336-20.544-42.368-25.472-62.72-11.072M880.085 481.984c0-78.72-24.384-151.872-65.984-212.16-0.64-1.024-1.024-2.112-1.536-3.008-5.376-7.424-10.88-14.336-16.576-21.312-0.64-0.768-1.28-1.664-1.856-2.56-38.272-46.080-86.080-81.856-140.16-105.216-1.6-0.64-2.944-1.344-4.544-1.984-8.704-3.584-17.536-6.656-26.56-9.728-3.072-1.024-6.336-2.176-9.536-3.136-7.808-2.368-15.616-4.288-23.552-6.144-4.416-0.96-8.896-2.112-13.312-3.008-2.176-0.384-4.16-1.024-6.464-1.472-5.952-0.96-11.776-1.536-17.728-2.24-4.16-0.448-8.128-1.088-12.288-1.536-9.984-0.96-19.904-1.344-29.824-1.536-1.792 0-3.584-0.256-5.376-0.256-0.32 0-0.64 0.064-0.96 0.128-76.16 0.064-150.528 23.040-214.272 67.776-20.352 14.208-25.344 42.304-11.008 62.784 14.144 20.288 42.368 25.28 62.784 10.944 49.216-34.432 106.688-51.968 165.632-51.392 8.448 0.064 16.896 0.448 25.088 1.28 2.56 0.192 4.992 0.576 7.552 0.96 6.784 0.832 13.504 1.728 20.16 3.136 2.88 0.512 5.824 1.28 8.576 1.92 6.592 1.472 12.992 3.008 19.328 4.928 2.112 0.576 4.032 1.28 5.952 2.048 7.36 2.368 14.528 4.864 21.44 7.808 0.768 0.192 1.472 0.768 2.176 1.024 42.048 18.048 78.848 45.824 107.648 80.64 0.064 0.128 0.192 0.384 0.448 0.576 40.448 49.28 64.768 112.192 64.832 180.736h-75.2l120.32 180.224 120-180.224h-75.2z" fill="#272636"></path></g></g></svg>