<?xml version="1.0" standalone="no"?><!DOCTYPE svg PUBLIC "-//W3C//DTD SVG 1.1//EN" "http://www.w3.org/Graphics/SVG/1.1/DTD/svg11.dtd"><svg xmlns:xlink="http://www.w3.org/1999/xlink" xmlns="http://www.w3.org/2000/svg" version="1.1" width="200" height="200" viewBox="0 0 200 200"><defs><style type="text/css"><![CDATA[
@font-face {
  font-family: "ifont";
  src: url("//at.alicdn.com/t/font_1442373896_4754455.eot?#iefix") format("embedded-opentype"), url("//at.alicdn.com/t/font_1442373896_4754455.woff") format("woff"), url("//at.alicdn.com/t/font_1442373896_4754455.ttf") format("truetype"), url("//at.alicdn.com/t/font_1442373896_4754455.svg#ifont") format("svg");
}

]]></style></defs><g class="transform-group"><g transform="scale(0.1953125, 0.1953125)"><path d="M511.98158 498.259044c-90.729397 0-164.5548-73.566506-164.5548-163.981748s73.825402-163.981748 164.5548-163.981748c90.766236 0 164.591639 73.566506 164.591639 163.981748S602.746794 498.259044 511.98158 498.259044zM511.98158 208.17118c-69.868277 0-126.680191 56.571437-126.680191 126.107139s56.811914 126.107139 126.680191 126.107139 126.71703-56.571437 126.71703-126.107139S581.849858 208.17118 511.98158 208.17118zM511.796362 845.215104c-5.067412 0-9.912767-2.015913-13.46364-5.622044-62.397119-63.043848-266.047332-285.150412-266.047332-495.625054 0-153.661705 125.496226-278.678 279.732006-278.678s279.732006 125.015272 279.732006 278.678c0 204.869994-203.872271 431.045223-266.343067 495.495094C521.819646 843.125513 515.901867 844.031139 511.796362 845.215104zM512.01842 103.164614c-133.37466 0-241.857397 108.020202-241.857397 240.803391 0 183.02957 170.213683 380.428406 241.487983 455.013101 71.347978-76.063373 242.22681-276.902564 242.22681-455.013101C753.875816 211.184817 645.393079 103.164614 512.01842 103.164614zM512.01842 958.708971c-218.962967 0-440.625416-45.956681-440.625416-133.800355 0-71.810512 142.732795-104.895025 227.839125-118.247124 10.096962-1.534959 20.009729 5.418406 21.63781 15.775288 1.627057 10.337439-5.436826 20.028149-15.793708 21.656229-143.656841 22.525016-195.808618 60.676941-195.808618 80.81663 0 39.113833 156.898423 95.925746 402.750807 95.925746 245.814522 0 402.713968-56.811914 402.713968-95.925746 0-20.158109-52.151777-58.310034-195.808618-80.81663-10.355859-1.627057-17.420765-11.317767-15.793708-21.656229 1.627057-10.355859 11.392468-17.310248 21.63781-15.775288 85.107353 13.33368 227.839125 46.436612 227.839125 118.247124C952.605973 912.753313 730.980363 958.708971 512.01842 958.708971z" fill="#272636"></path></g></g></svg>