<?xml version="1.0" standalone="no"?><!DOCTYPE svg PUBLIC "-//W3C//DTD SVG 1.1//EN" "http://www.w3.org/Graphics/SVG/1.1/DTD/svg11.dtd"><svg xmlns:xlink="http://www.w3.org/1999/xlink" xmlns="http://www.w3.org/2000/svg" version="1.1" width="200" height="200" viewBox="0 0 200 200"><defs><style type="text/css"><![CDATA[
@font-face {
  font-family: "ifont";
  src: url("//at.alicdn.com/t/font_1442373896_4754455.eot?#iefix") format("embedded-opentype"), url("//at.alicdn.com/t/font_1442373896_4754455.woff") format("woff"), url("//at.alicdn.com/t/font_1442373896_4754455.ttf") format("truetype"), url("//at.alicdn.com/t/font_1442373896_4754455.svg#ifont") format("svg");
}

]]></style></defs><g class="transform-group"><g transform="scale(0.1953125, 0.1953125)"><path d="M512 512M843.063652 1009.174261 178.888348 1009.174261c-85.926957 0-155.826087-69.921391-155.826087-155.826087L23.062261 179.912348c0-85.926957 69.89913-155.826087 155.826087-155.826087l664.175304 0c85.904696 0 155.826087 69.89913 155.826087 155.826087l0 673.435826C998.889739 939.25287 928.968348 1009.174261 843.063652 1009.174261zM178.888348 68.608c-61.373217 0-111.304348 49.93113-111.304348 111.304348l0 673.435826c0 61.373217 49.93113 111.304348 111.304348 111.304348l664.175304 0c61.373217 0 111.304348-49.93113 111.304348-111.304348L954.368 179.912348c0-61.373217-49.93113-111.304348-111.304348-111.304348L178.888348 68.608zM696.965565 798.274783l-186.368-98.103652-186.523826 98.081391 35.639652-207.782957-150.928696-147.166609 208.562087-30.297043 93.295304-189.061565 93.117217 189.061565 208.517565 30.297043-150.884174 147.166609L696.965565 798.274783zM304.417391 474.401391l103.090087 100.574609-24.33113 141.913043 127.421217-67.005217 127.198609 66.982957-24.286609-141.890783 103.067826-100.574609-142.469565-20.702609-63.532522-129.068522-63.688348 129.068522L304.417391 474.401391z" fill="#272636"></path></g></g></svg>