<?xml version="1.0" standalone="no"?><!DOCTYPE svg PUBLIC "-//W3C//DTD SVG 1.1//EN" "http://www.w3.org/Graphics/SVG/1.1/DTD/svg11.dtd"><svg xmlns:xlink="http://www.w3.org/1999/xlink" xmlns="http://www.w3.org/2000/svg" version="1.1" width="200" height="200" viewBox="0 0 200 200"><defs><style type="text/css"><![CDATA[
@font-face {
  font-family: "ifont";
  src: url("//at.alicdn.com/t/font_1442373896_4754455.eot?#iefix") format("embedded-opentype"), url("//at.alicdn.com/t/font_1442373896_4754455.woff") format("woff"), url("//at.alicdn.com/t/font_1442373896_4754455.ttf") format("truetype"), url("//at.alicdn.com/t/font_1442373896_4754455.svg#ifont") format("svg");
}

]]></style></defs><g class="transform-group"><g transform="scale(0.1953125, 0.1953125)"><path d="M64.066783 480.456348l103.891478 0 0.601043 74.640696c0 106.607304 1.758609 213.25913-0.556522 319.821913-1.825391 83.789913 40.448 106.406957 115.489391 108.29913 78.558609 1.958957 114.020174-31.543652 114.821565-108.254609 0.801391-78.202435 2.426435-156.471652-0.578783-234.562783-2.181565-56.097391 18.921739-78.113391 73.928348-75.174957 150.127304 7.991652 161.413565-37.264696 156.850087 149.793391-1.090783 46.191304-0.623304 92.40487-0.044522 138.640696 1.335652 101.843478 24.954435 127.910957 114.866087 127.910957 114.176 0 114.42087 0 114.843826-127.910957 0.378435-99.550609 0.066783-199.012174 0.066783-298.518261l0-75.130435 109.746087 0 0 0.467478c-151.774609-149.147826-303.526957-298.295652-450.114783-442.368C366.970435 185.188174 215.529739 332.822261 64.066783 480.456348z" fill="#272636"></path></g></g></svg>