<?xml version="1.0" standalone="no"?><!DOCTYPE svg PUBLIC "-//W3C//DTD SVG 1.1//EN" "http://www.w3.org/Graphics/SVG/1.1/DTD/svg11.dtd"><svg xmlns:xlink="http://www.w3.org/1999/xlink" xmlns="http://www.w3.org/2000/svg" version="1.1" width="200" height="200" viewBox="0 0 200 200"><defs><style type="text/css"><![CDATA[
@font-face {
  font-family: "ifont";
  src: url("//at.alicdn.com/t/font_1442373896_4754455.eot?#iefix") format("embedded-opentype"), url("//at.alicdn.com/t/font_1442373896_4754455.woff") format("woff"), url("//at.alicdn.com/t/font_1442373896_4754455.ttf") format("truetype"), url("//at.alicdn.com/t/font_1442373896_4754455.svg#ifont") format("svg");
}

]]></style></defs><g class="transform-group"><g transform="scale(0.1953125, 0.1953125)"><path d="M513.113043 51.133217c-255.910957 0-463.337739 207.426783-463.337739 463.315478 0 255.866435 207.426783 463.315478 463.337739 463.315478 255.910957 0 463.337739-207.449043 463.337739-463.315478C976.450783 258.56 769.024 51.133217 513.113043 51.133217zM755.133217 615.090087l-271.805217 0c-12.288 0-22.26087-9.950609-22.26087-22.26087L461.06713 298.028522c0-12.288 9.97287-22.26087 22.26087-22.26087s22.26087 9.97287 22.26087 22.26087l0 272.539826 249.544348 0c12.310261 0 22.26087 9.950609 22.26087 22.26087S767.443478 615.090087 755.133217 615.090087z" fill="#272636"></path></g></g></svg>