<?xml version="1.0" standalone="no"?><!DOCTYPE svg PUBLIC "-//W3C//DTD SVG 1.1//EN" "http://www.w3.org/Graphics/SVG/1.1/DTD/svg11.dtd"><svg xmlns:xlink="http://www.w3.org/1999/xlink" xmlns="http://www.w3.org/2000/svg" version="1.1" width="200" height="200" viewBox="0 0 200 200"><defs><style type="text/css"><![CDATA[
@font-face {
  font-family: "ifont";
  src: url("//at.alicdn.com/t/font_1442373896_4754455.eot?#iefix") format("embedded-opentype"), url("//at.alicdn.com/t/font_1442373896_4754455.woff") format("woff"), url("//at.alicdn.com/t/font_1442373896_4754455.ttf") format("truetype"), url("//at.alicdn.com/t/font_1442373896_4754455.svg#ifont") format("svg");
}

]]></style></defs><g class="transform-group"><g transform="scale(0.1953125, 0.1953125)"><path d="M132.902 644.902C59.617 644.902 0 585.285 0 512s59.617-132.902 132.902-132.902S265.804 438.715 265.804 512 206.188 644.902 132.902 644.902zM132.902 431.387c-44.451 0-80.613 36.162-80.613 80.613s36.162 80.613 80.613 80.613 80.613-36.162 80.613-80.613S177.354 431.387 132.902 431.387zM512 644.902c-73.285 0-132.902-59.617-132.902-132.902S438.715 379.098 512 379.098c73.276 0 132.902 59.617 132.902 132.902S585.276 644.902 512 644.902zM512 431.387c-44.451 0-80.613 36.162-80.613 80.613s36.162 80.613 80.613 80.613c44.442 0 80.613-36.162 80.613-80.613S556.442 431.387 512 431.387zM891.098 644.902c-73.276 0-132.901-59.617-132.901-132.902s59.625-132.902 132.901-132.902C964.375 379.098 1024 438.715 1024 512S964.375 644.902 891.098 644.902zM891.098 431.387c-44.442 0-80.612 36.162-80.612 80.613s36.17 80.613 80.612 80.613c44.443 0 80.613-36.162 80.613-80.613S935.541 431.387 891.098 431.387z" fill="#272636"></path></g></g></svg>