<?xml version="1.0" standalone="no"?><!DOCTYPE svg PUBLIC "-//W3C//DTD SVG 1.1//EN" "http://www.w3.org/Graphics/SVG/1.1/DTD/svg11.dtd"><svg xmlns:xlink="http://www.w3.org/1999/xlink" xmlns="http://www.w3.org/2000/svg" version="1.1" width="200" height="200" viewBox="0 0 200 200"><defs><style type="text/css"><![CDATA[
@font-face {
  font-family: "ifont";
  src: url("//at.alicdn.com/t/font_1442373896_4754455.eot?#iefix") format("embedded-opentype"), url("//at.alicdn.com/t/font_1442373896_4754455.woff") format("woff"), url("//at.alicdn.com/t/font_1442373896_4754455.ttf") format("truetype"), url("//at.alicdn.com/t/font_1442373896_4754455.svg#ifont") format("svg");
}

]]></style></defs><g class="transform-group"><g transform="scale(0.1953125, 0.1953125)"><path d="M512 512M281.043478 466.543304M24.776348 168.848696c0 0 5.186783-138.818783 150.26087-149.726609l336.762435 0 0 279.529739-70.589217 144.272696-158.608696 22.728348 114.086957 111.34887-27.136 158.608696 142.246957-74.440348 0 343.240348L178.95513 1004.410435c0 0-65.469217 7.635478-110.035478-39.757913-31.632696-33.636174-44.121043-71.880348-44.121043-107.297391L24.798609 168.848696zM999.646609 168.848696c0 0-6.010435-138.818783-151.04-149.726609L511.844174 19.122087l0 279.529739 70.589217 144.272696 158.608696 22.728348-114.086957 111.34887 27.136 158.608696-142.246957-74.440348 0 343.240348 332.866783 0c0 0 65.469217 7.635478 110.035478-39.757913 31.610435-33.636174 44.922435-71.880348 44.922435-107.297391L999.66887 168.848696z" fill="#272636"></path></g></g></svg>