<?xml version="1.0" standalone="no"?><!DOCTYPE svg PUBLIC "-//W3C//DTD SVG 1.1//EN" "http://www.w3.org/Graphics/SVG/1.1/DTD/svg11.dtd"><svg xmlns:xlink="http://www.w3.org/1999/xlink" xmlns="http://www.w3.org/2000/svg" version="1.1" width="200" height="200" viewBox="0 0 200 200"><defs><style type="text/css"><![CDATA[
@font-face {
  font-family: "ifont";
  src: url("//at.alicdn.com/t/font_1442373896_4754455.eot?#iefix") format("embedded-opentype"), url("//at.alicdn.com/t/font_1442373896_4754455.woff") format("woff"), url("//at.alicdn.com/t/font_1442373896_4754455.ttf") format("truetype"), url("//at.alicdn.com/t/font_1442373896_4754455.svg#ifont") format("svg");
}

]]></style></defs><g class="transform-group"><g transform="scale(0.1953125, 0.1953125)"><path d="M885.181217 986.468174 134.38887 986.468174c-45.634783-1.914435-77.04487-15.026087-94.319304-38.956522-20.034783-27.781565-12.221217-57.967304-11.264-61.328696 51.667478-212.880696 263.991652-310.806261 293.999304-323.673043l6.099478-4.986435 28.115478 34.526609-14.269217 10.373565c-2.203826 0.890435-221.696 92.449391-270.914783 295.134609-0.26713 1.068522-3.294609 13.690435 4.608 24.264348 8.904348 11.931826 29.273043 18.899478 58.902261 20.146087l749.83513-0.022261c6.92313-0.044522 67.650783-1.825391 68.919652-48.172522-2.849391-17.92-35.350261-185.054609-269.378783-291.706435l-4.719304-2.916174-7.880348-6.344348 27.91513-34.704696 5.721043 4.608c263.724522 121.366261 291.661913 318.419478 292.708174 326.789565l0.178087 2.80487C998.622609 966.789565 924.40487 986.468174 885.181217 986.468174zM512 512M514.070261 640.734609c-172.499478 0-312.832-140.377043-312.832-312.921043 0-172.499478 140.332522-312.832 312.832-312.832 172.499478 0 312.832 140.332522 312.832 312.832C826.902261 500.379826 686.569739 640.734609 514.070261 640.734609zM514.070261 59.525565c-147.945739 0-268.310261 120.364522-268.310261 268.310261 0 147.990261 120.364522 268.399304 268.310261 268.399304 147.945739 0 268.310261-120.409043 268.310261-268.399304C782.380522 179.890087 661.993739 59.525565 514.070261 59.525565z" fill="#272636"></path></g></g></svg>