<?xml version="1.0" encoding="utf-8"?>
<!-- Generator: Adobe Illustrator 16.0.0, SVG Export Plug-In . SVG Version: 6.00 Build 0)  -->
<!DOCTYPE svg PUBLIC "-//W3C//DTD SVG 1.1//EN" "http://www.w3.org/Graphics/SVG/1.1/DTD/svg11.dtd">
<svg version="1.1" id="图层_1" xmlns="http://www.w3.org/2000/svg" xmlns:xlink="http://www.w3.org/1999/xlink" x="0px" y="0px"
	 width="612px" height="792px" viewBox="0 0 612 792" enable-background="new 0 0 612 792" xml:space="preserve">
<g>
	<g>
		<path fill-rule="evenodd" clip-rule="evenodd" d="M125.348,58.152c4.152,0,8.305,0,12.457,0
			c28.607,30.229,57.216,60.454,87.542,92.499c-8.862,1.585-15.143,2.713-22.081,3.954c0,25.684,0.014,49.786-0.006,73.892
			c-0.014,19.009-13.042,19.484-27.115,19.683c-14.206,0.207-22.312-4.087-21.211-20.161c0.892-13.048-0.417-26.239,0.229-39.32
			c0.693-13.965-4.927-20.035-19.114-20.457c-23.782-0.71-27.731,2.449-27.871,26.121c-0.057,9.663-0.791,19.391,0.083,28.972
			c1.555,17.051-3.651,25.477-22.661,25.116c-18.312-0.353-26.677-6.577-25.909-25.635c0.931-23.072,0.221-46.209,0.221-70.506
			c-9.547,0.588-15.654,0.965-21.76,1.342c0-2.77,0-5.535,0-8.305C67.217,116.283,96.283,87.217,125.348,58.152z"/>
		<path fill-rule="evenodd" clip-rule="evenodd" fill="#FFFFFF" d="M38.152,153.652c6.106-0.377,12.213-0.754,21.76-1.342
			c0,24.296,0.709,47.434-0.221,70.506c-0.768,19.058,7.597,25.282,25.909,25.635c19.009,0.361,24.216-8.065,22.661-25.116
			c-0.874-9.582-0.14-19.309-0.083-28.972c0.14-23.672,4.089-26.831,27.871-26.121c14.188,0.421,19.808,6.492,19.114,20.457
			c-0.646,13.081,0.663,26.271-0.229,39.32c-1.101,16.074,7.005,20.368,21.211,20.161c14.072-0.199,27.101-0.673,27.115-19.683
			c0.021-24.106,0.006-48.208,0.006-73.892c6.938-1.241,13.219-2.368,22.081-3.954c-30.326-32.045-58.936-62.271-87.542-92.499
			c31.833,0,63.667,0,95.5,0c0,65.052,0,130.1,0,195.152c-65.05,0-130.102,0-195.152,0C38.152,220.087,38.152,186.87,38.152,153.652
			z"/>
		<path fill-rule="evenodd" clip-rule="evenodd" fill="#FFFFFF" d="M125.348,58.152c-29.065,29.065-58.13,58.13-87.195,87.195
			c0-29.065,0-58.13,0-87.195C67.217,58.152,96.283,58.152,125.348,58.152z"/>
	</g>
</g>
</svg>
