<?xml version="1.0" encoding="utf-8"?>
<!-- Generator: Adobe Illustrator 16.0.0, SVG Export Plug-In . SVG Version: 6.00 Build 0)  -->
<!DOCTYPE svg PUBLIC "-//W3C//DTD SVG 1.1//EN" "http://www.w3.org/Graphics/SVG/1.1/DTD/svg11.dtd">
<svg version="1.1" id="图形" xmlns="http://www.w3.org/2000/svg" xmlns:xlink="http://www.w3.org/1999/xlink" x="0px" y="0px"
	 width="1000.637px" height="1000.678px" viewBox="15.167 -16.333 1000.637 1000.678"
	 enable-background="new 15.167 -16.333 1000.637 1000.678" xml:space="preserve">
<g>
	<g>
		<path fill-rule="evenodd" clip-rule="evenodd" d="M493.732,5.42c21.753,0,43.506,0,65.259,0
			c149.87,158.368,299.751,316.714,469.611,496.218C904.776,479.949,895.1,536.115,900.538,615.926
			c6.618,97.166,3.866,195.225,0.351,292.73c-3.356,93.3-73.268,91.559-141.043,91.877c-65.132,0.318-114.649-11.344-110.837-94.319
			c3.484-75.753-2.061-151.91,0.712-227.727c3.304-90.581-54.605-96.231-121.659-95.807c-65.302,0.425-126.779,1.338-124.527,92.96
			c1.773,72.269-4.578,144.963,0.86,216.85c6.946,91.855-41.637,109.402-118.866,108.808
			c-78.568-0.616-136.667-15.72-134.926-111.484c1.7-93.979-5.3-188.427,1.667-281.896c6.894-92.471-22.974-128.86-115.35-102.179
			c0-14.509,0-28.997,0-43.506C205.367,326.149,350.574,166.804,493.732,5.42z"/>
		<path fill-rule="evenodd" clip-rule="evenodd" fill="none" d="M36.919,505.739c92.376-26.682,122.244,9.708,115.35,102.179
			c-6.968,93.47,0.032,187.917-1.667,281.896c-1.742,95.765,56.358,110.868,134.926,111.484
			c77.229,0.595,125.813-16.952,118.866-108.808c-5.438-71.887,0.913-144.581-0.86-216.85
			c-2.252-91.622,59.226-92.535,124.527-92.96c67.054-0.425,124.963,5.226,121.659,95.807
			c-2.772,75.816,2.772,151.974-0.712,227.727c-3.813,82.976,45.705,94.638,110.837,94.319
			c67.775-0.318,137.687,1.423,141.043-91.877c3.516-97.506,6.268-195.564-0.351-292.73
			c-5.438-79.811,4.238-135.977,128.064-114.288C858.742,322.134,708.861,163.787,558.991,5.42
			c141.395,0,282.863,2.549,424.141-1.444c46.937-1.317,56.241,9.071,55.816,55.848c-2.709,304.499-2.709,609.083,0,913.582
			c0.425,46.777-9.018,56.23-55.784,55.806c-297.267-2.762-594.585-2.762-891.851,0c-46.767,0.425-56.974-8.922-55.827-55.826
			C39.277,817.587,36.919,661.642,36.919,505.739z"/>
		<path fill-rule="evenodd" clip-rule="evenodd" fill="none" d="M493.732,5.42C350.574,166.804,205.367,326.149,36.919,462.232
			c0-137.762,1.827-275.587-1.189-413.285C34.901,11.113,42.602,3.402,80.447,4.23C218.155,7.247,355.959,5.42,493.732,5.42z"/>
	</g>
</g>
</svg>
