<?xml version="1.0" standalone="no"?><!DOCTYPE svg PUBLIC "-//W3C//DTD SVG 1.1//EN" "http://www.w3.org/Graphics/SVG/1.1/DTD/svg11.dtd"><svg xmlns:xlink="http://www.w3.org/1999/xlink" xmlns="http://www.w3.org/2000/svg" version="1.1" width="200" height="200" viewBox="0 0 200 200"><defs><style type="text/css"><![CDATA[
@font-face {
  font-family: "ifont";
  src: url("//at.alicdn.com/t/font_1442373896_4754455.eot?#iefix") format("embedded-opentype"), url("//at.alicdn.com/t/font_1442373896_4754455.woff") format("woff"), url("//at.alicdn.com/t/font_1442373896_4754455.ttf") format("truetype"), url("//at.alicdn.com/t/font_1442373896_4754455.svg#ifont") format("svg");
}

]]></style></defs><g class="transform-group"><g transform="scale(0.1953125, 0.1953125)"><path d="M933.52 772.42l58.48 48.3-66.48 79.54-56.7-46.82-50.9 63.66c-28.96 36.24-67.6 29.84-89.68 11.58-22.12-18.24-19.74-41.78 9.24-77.98l50.88-63.72-16.36-13.52-71.26 89.18c-35.76 44.8-82.7 64.58-126.74 28.22s-36.64-88.8-0.86-133.56l71.24-89.2-318.96-263.42-71.26 89.18c-35.78 44.76-84.72 62.92-128.76 26.56-44.040-36.36-35.6-87.96 0.18-132.74l71.24-89.18-15.5-12.8-49.26 61.66c-28.94 36.24-56.5 49.1-78.6 30.84-22.080-18.24-32.8-62.7-3.86-98.94l49.26-61.66-54.54-45.060 66.5-79.54 52.76 43.56 33.78-42.28c28.94-36.22 72.16-32.44 94.26-14.18s17.14 46.060-11.8 82.3l-33.78 42.3 15.52 12.8 54.040-67.62c35.78-44.78 84.54-64.76 128.58-28.38s35.8 89.8 0.020 134.56l-54.060 67.64 319.020 263.42 54.020-67.62c35.78-44.78 85.52-63.94 129.58-27.56 44.040 36.36 33.82 88.18-1.96 132.92l-54.060 67.66 16.32 13.46 37.020-46.3c28.96-36.24 54.24-47.28 76.32-29 22.080 18.24 33.1 59.24 4.14 95.44l-37.020 46.3z" fill="#272636"></path></g></g></svg>