<?xml version="1.0" standalone="no"?><!DOCTYPE svg PUBLIC "-//W3C//DTD SVG 1.1//EN" "http://www.w3.org/Graphics/SVG/1.1/DTD/svg11.dtd"><svg xmlns:xlink="http://www.w3.org/1999/xlink" xmlns="http://www.w3.org/2000/svg" version="1.1" width="200" height="200" viewBox="0 0 200 200"><defs><style type="text/css"><![CDATA[
@font-face {
  font-family: "ifont";
  src: url("//at.alicdn.com/t/font_1442373896_4754455.eot?#iefix") format("embedded-opentype"), url("//at.alicdn.com/t/font_1442373896_4754455.woff") format("woff"), url("//at.alicdn.com/t/font_1442373896_4754455.ttf") format("truetype"), url("//at.alicdn.com/t/font_1442373896_4754455.svg#ifont") format("svg");
}

]]></style></defs><g class="transform-group"><g transform="scale(0.1953125, 0.1953125)"><path d="M426.66373 661.334361c0-47.144749 38.186824-85.331572 85.33392-85.331572 47.147097 0 85.331572 38.186824 85.331572 85.331572 0 30.0836-15.577162 56.539416-39.036829 71.684532 0 0 8.335684 50.356922 17.709219 109.652514 0 17.700531-14.292762 31.992589-32.001981 31.992589l-64.003962 0c-17.706871 0-31.997285-14.292058-31.997285-31.992589l17.709219-109.652514c-23.462015-15.145115-39.043873-41.60328-39.043873-71.684532zm-85.331572-234.669455l0-149.330838c0-94.291845 76.371299-170.670189 170.665493-170.670189 94.294193 0 170.670189 76.378344 170.670189 170.670189l0 149.330838-341.335681 0zm-106.668105-149.330838l0 149.330838-63.999736 0C123.517455 426.664906 85.328048 464.851729 85.328048 511.998826L85.328048 938.670306C85.328048 985.81529 123.517455 1024 170.664317 1024l682.666667 0c47.144749 0 85.340965-38.18471 85.340965-85.329694l0-426.67148c0-47.147097-38.196216-85.33392-85.340965-85.33392l-63.99457 0 0-149.330838c0-153.169949-124.171162-277.334067-277.336415-277.334067-153.165253 0-277.335946 124.16177-277.335946 277.334067" fill="#272636"></path></g></g></svg>