<?xml version="1.0" standalone="no"?><!DOCTYPE svg PUBLIC "-//W3C//DTD SVG 1.1//EN" "http://www.w3.org/Graphics/SVG/1.1/DTD/svg11.dtd"><svg xmlns:xlink="http://www.w3.org/1999/xlink" xmlns="http://www.w3.org/2000/svg" version="1.1" width="200" height="200" viewBox="0 0 200 200"><defs><style type="text/css"><![CDATA[
@font-face {
  font-family: "ifont";
  src: url("//at.alicdn.com/t/font_1442373896_4754455.eot?#iefix") format("embedded-opentype"), url("//at.alicdn.com/t/font_1442373896_4754455.woff") format("woff"), url("//at.alicdn.com/t/font_1442373896_4754455.ttf") format("truetype"), url("//at.alicdn.com/t/font_1442373896_4754455.svg#ifont") format("svg");
}

]]></style></defs><g class="transform-group"><g transform="scale(0.1953125, 0.1953125)"><path d="M512 512M514.070261 327.835826m-290.57113 0a13.053 13.053 0 1 0 581.142261 0 13.053 13.053 0 1 0-581.142261 0ZM758.628174 615.468522c197.453913 117.314783 217.733565 276.836174 217.733565 276.836174 0 71.880348-91.202783 71.902609-91.202783 71.902609-217.533217-0.022261-750.792348 0-750.792348 0-103.490783-4.385391-84.190609-71.902609-84.190609-71.902609 31.276522-128.801391 125.773913-214.194087 197.275826-262.255304 7.012174-4.719304 13.801739-9.060174 20.301913-13.06713 0 0 112.684522 86.884174 244.802783 86.884174C657.630609 703.866435 758.628174 615.468522 758.628174 615.468522z" fill="#272636"></path></g></g></svg>