<?xml version="1.0" standalone="no"?><!DOCTYPE svg PUBLIC "-//W3C//DTD SVG 1.1//EN" "http://www.w3.org/Graphics/SVG/1.1/DTD/svg11.dtd"><svg xmlns:xlink="http://www.w3.org/1999/xlink" xmlns="http://www.w3.org/2000/svg" version="1.1" width="200" height="200" viewBox="0 0 200 200"><defs><style type="text/css"><![CDATA[
@font-face {
  font-family: "ifont";
  src: url("//at.alicdn.com/t/font_1442373896_4754455.eot?#iefix") format("embedded-opentype"), url("//at.alicdn.com/t/font_1442373896_4754455.woff") format("woff"), url("//at.alicdn.com/t/font_1442373896_4754455.ttf") format("truetype"), url("//at.alicdn.com/t/font_1442373896_4754455.svg#ifont") format("svg");
}

]]></style></defs><g class="transform-group"><g transform="scale(0.1953125, 0.1953125)"><path d="M960.225968 473.04478c0-7.68196-2.931892-15.362896-8.798747-21.228487-5.864808-5.864568-13.525592-8.797363-21.185353-8.797363l-45.828599 0c-18.997435 0-39.088828-14.81645-44.735663-32.93818l-23.768284-57.732889c-8.930759-16.698311-5.252846-41.340547 8.097754-54.757115l32.522003-32.477692c5.427838-5.427616 8.798747-12.933567 8.798747-21.228487 0-8.293897-3.326905-15.800871-8.798747-21.249977l-55.197351-55.107085c-5.427838-5.427616-12.912607-8.775874-21.185353-8.775874s-15.801518 3.370771-21.229357 8.775874l-32.522003 32.521694c-13.3506 13.394055-38.081854 17.070794-54.803362 8.097422l-57.691251-23.74582c-18.034464-5.602601-32.917016-25.737174-32.917016-44.711318L580.983386 93.797269c0-7.659447-2.932916-15.341407-8.798747-21.206998-5.864808-5.865591-13.525592-8.798387-21.185353-8.798387l-77.95866 0c-7.703765 0-15.363525 2.932796-21.229357 8.798387-5.864808 5.864568-8.797724 13.546527-8.797724 21.206998l0 45.893236c0 18.974144-14.751563 39.108716-32.873012 44.711318l-57.735255 23.74582c-16.764489 8.973372-41.364755 5.339612-54.715354-8.097422l-32.654015-32.499182c-5.427838-5.427616-12.956611-8.754385-21.229357-8.754385-8.272746 0-15.757514 3.369747-21.185353 8.775874l-55.065339 55.063083c-5.427838 5.427616-8.754743 12.912078-8.798747 21.206998 0 8.272407 3.370909 15.779382 8.798747 21.206998l32.479023 32.543184c13.437584 13.438057 17.115497 38.058804 8.097754 54.757115l-23.768284 57.776891c-5.602831 18.120706-25.694225 32.937157-44.690636 32.937157l-45.873626-0.042979c-7.703765 0-15.364549 2.932796-21.229357 8.797363-5.864808 5.865591-8.798747 13.546527-8.798747 21.228487l0 77.932953c0 7.68196 2.932916 15.363919 8.798747 21.228487 5.864808 5.844102 13.525592 8.775874 21.229357 8.775874l45.873626 0c18.996411 0.044002 39.044824 14.859429 44.647655 32.93818l23.812288 57.732889c8.929736 16.742313 5.29685 41.451064-8.097754 54.801117l-32.566007 32.476669c-5.427838 5.427616-8.798747 12.93459-8.798747 21.251 0 8.272407 3.369885 15.800871 8.798747 21.228487l55.196328 55.107085c5.427838 5.428639 12.912607 8.775874 21.186376 8.775874 8.272746 0 15.801518-3.347235 21.229357-8.775874l32.566007-32.499182c13.3506-13.371542 37.949842-17.048281 54.627346-7.988951l57.866243 23.74582c18.121449 5.624091 32.873012 25.714661 32.873012 44.711318l0 45.718251c0 7.68196 2.932916 15.362896 8.797724 21.228487 5.865831 5.843078 13.525592 8.775874 21.229357 8.775874l77.914656 0c7.703765 0 15.364549-2.932796 21.229357-8.775874 5.864808-5.865591 8.798747-13.546527 8.798747-21.228487l0-45.718251c0-18.996656 14.882552-39.087227 32.917016-44.711318l57.779259-23.74582c16.720485-9.060353 41.407735-5.383614 54.846343 7.988951l32.347011 32.476669c5.427838 5.450129 12.912607 8.842389 21.229357 8.842389 8.272746 0.021489 15.801518-3.326768 21.229357-8.775874l55.197351-55.151088c5.471842-5.449106 8.798747-12.95608 8.798747-21.251s-3.370909-15.800871-8.798747-21.228487l-32.522003-32.476669c-13.3506-13.350053-17.028513-38.057781-8.097754-54.801117l23.768284-57.732889c5.646835-18.077727 25.825213-32.894178 44.735663-32.894178l45.828599 0c7.659761 0 15.320545-2.931772 21.185353-8.798387 5.865831-5.864568 8.798747-13.546527 8.798747-21.228487L960.226991 473.04478 960.225968 473.04478zM684.505282 511.957021c0 95.222735-77.169659 172.34523-172.373782 172.34523-95.248127 0-172.418809-77.122495-172.418809-172.34523 0-95.200222 77.170682-172.367743 172.418809-172.367743C607.335623 339.589278 684.505282 416.756799 684.505282 511.957021" fill="#272636"></path></g></g></svg>