<?xml version="1.0" encoding="utf-8"?>
<!-- Generator: Adobe Illustrator 16.0.0, SVG Export Plug-In . SVG Version: 6.00 Build 0)  -->
<!DOCTYPE svg PUBLIC "-//W3C//DTD SVG 1.1//EN" "http://www.w3.org/Graphics/SVG/1.1/DTD/svg11.dtd">
<svg version="1.1" id="图层_1" xmlns="http://www.w3.org/2000/svg" xmlns:xlink="http://www.w3.org/1999/xlink" x="0px" y="0px"
	 width="595.28px" height="841.89px" viewBox="0 0 595.28 841.89" enable-background="new 0 0 595.28 841.89" xml:space="preserve">
<g>
	<g>
		<path fill-rule="evenodd" clip-rule="evenodd" d="M371.718,450.216c-11.536,0-23.073,0-34.608,0
			c-15.121-17.55-7.299-38.563-7.402-57.819c-0.105-19.539-6.026-27.203-26.102-26.755c-17.898,0.401-23.194,7.173-23.9,24.622
			c-0.807,19.996,8.107,41.714-7.488,59.953c-10.094,0-20.187,0-30.282,0c-9.78-6.764-12.725-16.028-12.154-27.786
			c0.83-17.152-0.913-34.465,0.476-51.545c1.5-18.462-4.764-25.386-22.93-20.168c0-2.886,0-5.767,0-8.652
			c33.5-27.063,62.377-58.753,90.848-90.848c4.326,0,8.652,0,12.979,0c29.805,31.491,59.608,62.986,93.984,99.31
			c-29.336-6.43-25.061,9.797-26.032,24.195C377.399,399.93,386.159,426.267,371.718,450.216z"/>
		<path fill-rule="evenodd" clip-rule="evenodd" fill="none" d="M371.718,450.216c14.441-23.949,5.682-50.287,7.387-75.495
			c0.972-14.398-3.304-30.625,26.032-24.195c-34.376-36.324-64.18-67.819-93.984-99.31c28.119,0,56.254,0.507,84.35-0.287
			c9.335-0.262,11.193,1.804,11.103,11.106c-0.558,56.953-0.939,113.927,0.172,170.868c0.289,14.866-2.886,20.262-17.786,17.481
			C383.416,449.346,377.486,450.216,371.718,450.216z"/>
		<path fill-rule="evenodd" clip-rule="evenodd" fill="none" d="M298.174,251.216c-28.471,32.095-57.348,63.784-90.848,90.848
			c0-27.397,0.363-54.807-0.237-82.191c-0.165-7.524,1.367-9.058,8.893-8.893C243.369,251.58,270.774,251.216,298.174,251.216z"/>
		<path fill-rule="evenodd" clip-rule="evenodd" fill="none" d="M272.217,450.216c15.596-18.238,6.682-39.957,7.488-59.953
			c0.706-17.448,6.002-24.22,23.9-24.622c20.075-0.448,25.996,7.216,26.102,26.755c0.104,19.256-7.719,40.27,7.402,57.819
			C315.479,450.216,293.848,450.216,272.217,450.216z"/>
		<path fill-rule="evenodd" clip-rule="evenodd" fill="none" d="M207.326,350.716c18.166-5.218,24.429,1.707,22.93,20.168
			c-1.388,17.081,0.354,34.394-0.476,51.545c-0.57,11.758,2.375,21.022,12.154,27.786c-34.608,0-34.608,0-34.608-34.609
			C207.326,393.977,207.326,372.347,207.326,350.716z"/>
	</g>
</g>
</svg>
