<?xml version="1.0" encoding="utf-8"?>
<!-- Generator: Adobe Illustrator 16.0.0, SVG Export Plug-In . SVG Version: 6.00 Build 0)  -->
<!DOCTYPE svg PUBLIC "-//W3C//DTD SVG 1.1//EN" "http://www.w3.org/Graphics/SVG/1.1/DTD/svg11.dtd">
<svg version="1.1" id="图形" xmlns="http://www.w3.org/2000/svg" xmlns:xlink="http://www.w3.org/1999/xlink" x="0px" y="0px"
	 width="1000.637px" height="1000.678px" viewBox="15.167 -16.333 1000.637 1000.678"
	 enable-background="new 15.167 -16.333 1000.637 1000.678" xml:space="preserve">
<g>
	<path fill-rule="evenodd" clip-rule="evenodd" stroke="#000000" stroke-width="12" d="M507.291,111.121c12.427,0,24.854,0,37.281,0
		c85.375,95.338,170.743,190.677,271.058,302.714c-83.913-27.378-75.575,16.638-75.193,55.582
		c0.589,60.022,1.093,120.083-0.352,180.069c-1.401,57.961-44.338,54.309-84.726,55.023c-40.467,0.717-61.789-13.652-59.52-58.117
		c2.421-47.475,0.108-95.182,0.315-142.789c0.23-53.761-38.204-49.465-73.901-50.132c-36.261-0.68-67.304,3.92-66.54,51.601
		c0.734,45.533-2.633,91.273,0.589,136.576c3.677,51.637-21.905,63.895-67.104,63.275c-44.52-0.607-78.719-7.877-77.906-63.119
		c0.85-57.947-3.016-116.139,0.959-173.819c3.628-52.693-12.81-74.003-65.927-58.616c0-8.289,0-16.565,0-24.854
		C349.963,309.285,420.526,202.467,507.291,111.121z"/>
	<path fill-rule="evenodd" clip-rule="evenodd" fill="none" stroke="#000000" stroke-width="12" d="M246.324,409.369
		c53.118-15.388,69.556,5.922,65.927,58.616c-3.975,57.681-0.109,115.872-0.959,173.819c-0.813,55.242,33.386,62.512,77.906,63.119
		c45.199,0.619,70.781-11.639,67.104-63.275c-3.222-45.303,0.146-91.043-0.589-136.576c-0.764-47.681,30.279-52.281,66.54-51.601
		c35.697,0.667,74.132-3.628,73.901,50.132c-0.207,47.607,2.105,95.314-0.315,142.789c-2.27,44.465,19.053,58.834,59.52,58.117
		c40.388-0.715,83.324,2.938,84.726-55.023c1.444-59.986,0.94-120.047,0.352-180.069c-0.382-38.943-8.72-82.96,75.193-55.582
		C715.315,301.798,629.947,206.459,544.572,111.121c84.622,0,169.27,1.031,253.861-0.644c24.483-0.485,33.101,2.257,32.833,30.619
		c-1.705,183.687-1.365,367.385-0.255,551.084c0.14,23.238-5.236,28.627-28.488,28.482c-175.429-1.129-350.881-1.506-526.303,0.266
		c-28.555,0.291-30.928-8.627-30.521-32.936C247.246,595.142,246.324,502.243,246.324,409.369z"/>
	<path fill-rule="evenodd" clip-rule="evenodd" fill="none" stroke="#000000" stroke-width="12" d="M507.291,111.121
		c-86.765,91.346-157.328,198.164-260.967,273.394c0-80.775,1.456-161.587-0.819-242.302c-0.759-26.808,5.091-32.73,31.911-31.917
		C353.979,112.638,430.659,111.121,507.291,111.121z"/>
</g>
</svg>
