<?xml version="1.0" standalone="no"?><!DOCTYPE svg PUBLIC "-//W3C//DTD SVG 1.1//EN" "http://www.w3.org/Graphics/SVG/1.1/DTD/svg11.dtd"><svg xmlns:xlink="http://www.w3.org/1999/xlink" xmlns="http://www.w3.org/2000/svg" version="1.1" width="200" height="200" viewBox="0 0 200 200"><defs><style type="text/css"><![CDATA[
@font-face {
  font-family: "ifont";
  src: url("//at.alicdn.com/t/font_1442373896_4754455.eot?#iefix") format("embedded-opentype"), url("//at.alicdn.com/t/font_1442373896_4754455.woff") format("woff"), url("//at.alicdn.com/t/font_1442373896_4754455.ttf") format("truetype"), url("//at.alicdn.com/t/font_1442373896_4754455.svg#ifont") format("svg");
}

]]></style></defs><g class="transform-group"><g transform="scale(0.1953125, 0.1953125)"><path d="M471.77728 311.010304l0.067584-0.136192c15.372288-8.83712 18.944-27.117568 10.717184-40.609792l0.067584-0.202752c0 0-112.447488-183.825408-112.515072-183.892992-8.696832-14.234624-27.370496-18.552832-41.86624-10.389504l-66.941952 38.4512 143.526912 235.02848C404.83328 349.258752 471.77728 311.07584 471.77728 311.010304zM838.452224 852.708352l0-0.201728c0 0-109.348864-178.63168-109.416448-178.699264-8.629248-14.16704-27.301888-18.552832-41.796608-10.389504l-67.011584 38.4512 140.42624 229.900288c0 0 67.012608-38.248448 66.945024-38.316032l0.13312-0.067584C843.102208 884.616192 846.675968 866.26816 838.452224 852.708352zM489.84576 632.655872c-0.87552-0.538624-100.448256-162.84672-100.786176-164.938752-20.56192-43.644928-37.1456-88.236032-2.56-108.068864L242.83648 124.75392c-37.213184 27.051008-142.584832 173.505536 54.540288 505.40544 207.707136 349.775872 405.300224 335.27296 444.940288 311.597056l-140.02176-229.363712C569.194496 731.281408 541.351936 700.182528 489.84576 632.655872z" fill="#272636"></path></g></g></svg>