<?xml version="1.0" standalone="no"?><!DOCTYPE svg PUBLIC "-//W3C//DTD SVG 1.1//EN" "http://www.w3.org/Graphics/SVG/1.1/DTD/svg11.dtd"><svg xmlns:xlink="http://www.w3.org/1999/xlink" xmlns="http://www.w3.org/2000/svg" version="1.1" width="200" height="200" viewBox="0 0 200 200"><defs><style type="text/css"><![CDATA[
@font-face {
  font-family: "ifont";
  src: url("//at.alicdn.com/t/font_1442373896_4754455.eot?#iefix") format("embedded-opentype"), url("//at.alicdn.com/t/font_1442373896_4754455.woff") format("woff"), url("//at.alicdn.com/t/font_1442373896_4754455.ttf") format("truetype"), url("//at.alicdn.com/t/font_1442373896_4754455.svg#ifont") format("svg");
}

]]></style></defs><g class="transform-group"><g transform="scale(0.1953125, 0.1953125)"><path d="M749.612522 876.321391M755.133217 615.090087l-271.805217 0c-12.288 0-22.26087-9.950609-22.26087-22.26087L461.06713 298.028522c0-12.288 9.97287-22.26087 22.26087-22.26087s22.26087 9.97287 22.26087 22.26087l0 272.539826 249.544348 0c12.310261 0 22.26087 9.950609 22.26087 22.26087S767.443478 615.090087 755.133217 615.090087zM513.113043 1000.025043c-267.753739 0-485.598609-217.822609-485.598609-485.576348 0-267.731478 217.84487-485.576348 485.598609-485.576348 267.753739 0 485.598609 217.822609 485.598609 485.576348 0 72.370087-15.560348 142.024348-46.235826 207.026087-5.231304 11.108174-18.521043 15.916522-29.629217 10.640696-11.130435-5.231304-15.872-18.521043-10.640696-29.629217 27.848348-58.991304 41.984-122.278957 41.984-188.037565 0-243.2-197.87687-441.054609-441.07687-441.054609S72.036174 271.248696 72.036174 514.448696c0 243.2 197.87687 441.054609 441.07687 441.054609 98.437565 0 191.554783-31.721739 269.245217-91.714783 9.728-7.479652 23.707826-5.676522 31.232 4.029217 7.501913 9.750261 5.698783 23.707826-4.029217 31.232C724.012522 965.097739 621.501217 1000.025043 513.113043 1000.025043zM512 512" fill="#272636"></path></g></g></svg>